<?xml version="1.0" encoding="UTF-8" standalone="no"?>
<!-- Created with Inkscape (http://www.inkscape.org/) -->

<svg
   xmlns:dc="http://purl.org/dc/elements/1.1/"
   xmlns:cc="http://creativecommons.org/ns#"
   xmlns:rdf="http://www.w3.org/1999/02/22-rdf-syntax-ns#"
   xmlns:svg="http://www.w3.org/2000/svg"
   xmlns="http://www.w3.org/2000/svg"
   xmlns:sodipodi="http://sodipodi.sourceforge.net/DTD/sodipodi-0.dtd"
   xmlns:inkscape="http://www.inkscape.org/namespaces/inkscape"
   width="668.66486"
   height="414"
   id="svg2"
   version="1.1"
   inkscape:version="0.48.4 r9939"
   sodipodi:docname="New document 1">
  <defs
     id="defs4" />
  <sodipodi:namedview
     id="base"
     pagecolor="#ffffff"
     bordercolor="#666666"
     borderopacity="1.0"
     inkscape:pageopacity="0.0"
     inkscape:pageshadow="2"
     inkscape:zoom="0.70710678"
     inkscape:cx="721.08965"
     inkscape:cy="2.6464846"
     inkscape:document-units="px"
     inkscape:current-layer="layer1"
     showgrid="false"
     fit-margin-top="0"
     fit-margin-left="0"
     fit-margin-right="0"
     fit-margin-bottom="0"
     inkscape:window-width="1596"
     inkscape:window-height="861"
     inkscape:window-x="0"
     inkscape:window-y="18"
     inkscape:window-maximized="0" />
  <metadata
     id="metadata7">
    <rdf:RDF>
      <cc:Work
         rdf:about="">
        <dc:format>image/svg+xml</dc:format>
        <dc:type
           rdf:resource="http://purl.org/dc/dcmitype/StillImage" />
        <dc:title></dc:title>
      </cc:Work>
    </rdf:RDF>
  </metadata>
  <g
     inkscape:label="Layer 1"
     inkscape:groupmode="layer"
     id="layer1"
     transform="translate(48.000001,-66.371971)">
    <path
       sodipodi:type="arc"
       style="fill:#ffffff;fill-opacity:1;stroke:#000000;stroke-width:2;stroke-linecap:butt;stroke-linejoin:miter;stroke-miterlimit:2.9000001;stroke-opacity:1;stroke-dasharray:none"
       id="path2989"
       sodipodi:cx="88.571426"
       sodipodi:cy="225.21933"
       sodipodi:rx="77.85714"
       sodipodi:ry="77.85714"
       d="m 166.42857,225.21933 c 0,42.99931 -34.85783,77.85714 -77.857144,77.85714 -42.99931,0 -77.857139,-34.85783 -77.857139,-77.85714 0,-42.99931 34.857829,-77.85714 77.857139,-77.85714 42.999314,0 77.857144,34.85783 77.857144,77.85714 z" />
    <path
       sodipodi:type="arc"
       style="fill:#dddddd;fill-opacity:0.94117647;stroke:#000000;stroke-width:2;stroke-linecap:butt;stroke-linejoin:miter;stroke-miterlimit:2.9000001;stroke-opacity:1;stroke-dasharray:none"
       id="path2991"
       sodipodi:cx="97.14286"
       sodipodi:cy="195.93361"
       sodipodi:rx="17.142857"
       sodipodi:ry="17.142857"
       d="m 114.28572,195.93361 c 0,9.46774 -7.67512,17.14286 -17.14286,17.14286 -9.467738,0 -17.142856,-7.67512 -17.142856,-17.14286 0,-9.46774 7.675118,-17.14286 17.142856,-17.14286 9.46774,0 17.14286,7.67512 17.14286,17.14286 z"
       transform="translate(-10.548277,-3.2573593)" />
    <path
       transform="translate(126.97417,101.33881)"
       sodipodi:type="arc"
       style="fill:#ffffff;fill-opacity:1;stroke:#000000;stroke-width:2;stroke-linecap:butt;stroke-linejoin:miter;stroke-miterlimit:2.9000001;stroke-opacity:1;stroke-dasharray:none"
       id="path2989-9"
       sodipodi:cx="88.571426"
       sodipodi:cy="225.21933"
       sodipodi:rx="77.85714"
       sodipodi:ry="77.85714"
       d="m 166.42857,225.21933 c 0,42.99931 -34.85783,77.85714 -77.857144,77.85714 -42.99931,0 -77.857139,-34.85783 -77.857139,-77.85714 0,-42.99931 34.857829,-77.85714 77.857139,-77.85714 42.999314,0 77.857144,34.85783 77.857144,77.85714 z" />
    <text
       xml:space="preserve"
       style="font-size:40px;font-style:normal;font-weight:normal;line-height:125%;letter-spacing:0px;word-spacing:0px;fill:#000000;fill-opacity:1;stroke:none;font-family:Sans"
       x="32.324875"
       y="201.81374"
       id="text3912"
       sodipodi:linespacing="125%"><tspan
         sodipodi:role="line"
         id="tspan3914"
         x="32.324875"
         y="201.81374">A</tspan></text>
    <text
       xml:space="preserve"
       style="font-size:40px;font-style:normal;font-weight:normal;line-height:125%;letter-spacing:0px;word-spacing:0px;fill:#000000;fill-opacity:1;stroke:none;font-family:Sans"
       x="164.92311"
       y="303.67102"
       id="text3912-1"
       sodipodi:linespacing="125%"><tspan
         sodipodi:role="line"
         id="tspan3914-2"
         x="164.92311"
         y="303.67102">B</tspan></text>
    <text
       xml:space="preserve"
       style="font-size:40px;font-style:normal;font-weight:normal;line-height:125%;letter-spacing:0px;word-spacing:0px;fill:#000000;fill-opacity:1;stroke:none;font-family:Sans"
       x="76.133644"
       y="204.34032"
       id="text3937"
       sodipodi:linespacing="125%"><tspan
         sodipodi:role="line"
         id="tspan3939"
         x="76.133644"
         y="204.34032"
         style="font-size:32px">1</tspan></text>
    <path
       sodipodi:type="arc"
       style="fill:#dddddd;fill-opacity:0.94117647;stroke:#000000;stroke-width:2;stroke-linecap:butt;stroke-linejoin:miter;stroke-miterlimit:2.9000001;stroke-opacity:1;stroke-dasharray:none"
       id="path2991-3"
       sodipodi:cx="97.14286"
       sodipodi:cy="195.93361"
       sodipodi:rx="17.142857"
       sodipodi:ry="17.142857"
       d="m 114.28572,195.93361 c 0,9.46774 -7.67512,17.14286 -17.14286,17.14286 -9.467738,0 -17.142856,-7.67512 -17.142856,-17.14286 0,-9.46774 7.675118,-17.14286 17.142856,-17.14286 9.46774,0 17.14286,7.67512 17.14286,17.14286 z"
       transform="translate(-54.716454,41.134454)" />
    <text
       xml:space="preserve"
       style="font-size:40px;font-style:normal;font-weight:normal;line-height:125%;letter-spacing:0px;word-spacing:0px;fill:#000000;fill-opacity:1;stroke:none;font-family:Sans"
       x="31.965469"
       y="248.73213"
       id="text3937-4"
       sodipodi:linespacing="125%"><tspan
         sodipodi:role="line"
         id="tspan3939-5"
         x="31.965469"
         y="248.73213"
         style="font-size:32px">4</tspan></text>
    <path
       sodipodi:type="arc"
       style="fill:#dddddd;fill-opacity:0.94117647;stroke:#000000;stroke-width:2;stroke-linecap:butt;stroke-linejoin:miter;stroke-miterlimit:2.9000001;stroke-opacity:1;stroke-dasharray:none"
       id="path2991-7"
       sodipodi:cx="97.14286"
       sodipodi:cy="195.93361"
       sodipodi:rx="17.142857"
       sodipodi:ry="17.142857"
       d="m 114.28572,195.93361 c 0,9.46774 -7.67512,17.14286 -17.14286,17.14286 -9.467738,0 -17.142856,-7.67512 -17.142856,-17.14286 0,-9.46774 7.675118,-17.14286 17.142856,-17.14286 9.46774,0 17.14286,7.67512 17.14286,17.14286 z"
       transform="translate(4.6805161,69.949056)" />
    <text
       xml:space="preserve"
       style="font-size:40px;font-style:normal;font-weight:normal;line-height:125%;letter-spacing:0px;word-spacing:0px;fill:#000000;fill-opacity:1;stroke:none;font-family:Sans"
       x="91.362442"
       y="277.54672"
       id="text3937-3"
       sodipodi:linespacing="125%"><tspan
         sodipodi:role="line"
         id="tspan3939-2"
         x="91.362442"
         y="277.54672"
         style="font-size:32px">3</tspan></text>
    <path
       sodipodi:type="arc"
       style="fill:#dddddd;fill-opacity:0.94117647;stroke:#000000;stroke-width:2;stroke-linecap:butt;stroke-linejoin:miter;stroke-miterlimit:2.9000001;stroke-opacity:1;stroke-dasharray:none"
       id="path2991-1"
       sodipodi:cx="97.14286"
       sodipodi:cy="195.93361"
       sodipodi:rx="17.142857"
       sodipodi:ry="17.142857"
       d="m 114.28572,195.93361 c 0,9.46774 -7.67512,17.14286 -17.14286,17.14286 -9.467738,0 -17.142856,-7.67512 -17.142856,-17.14286 0,-9.46774 7.675118,-17.14286 17.142856,-17.14286 9.46774,0 17.14286,7.67512 17.14286,17.14286 z"
       transform="translate(36.500321,0.82936775)" />
    <text
       xml:space="preserve"
       style="font-size:40px;font-style:normal;font-weight:normal;line-height:125%;letter-spacing:0px;word-spacing:0px;fill:#000000;fill-opacity:1;stroke:none;font-family:Sans"
       x="123.18224"
       y="208.42703"
       id="text3937-7"
       sodipodi:linespacing="125%"><tspan
         sodipodi:role="line"
         id="tspan3939-6"
         x="123.18224"
         y="208.42703"
         style="font-size:32px">2</tspan></text>
    <path
       sodipodi:type="arc"
       style="fill:#dddddd;fill-opacity:0.94117647;stroke:#000000;stroke-width:2;stroke-linecap:butt;stroke-linejoin:miter;stroke-miterlimit:2.9000001;stroke-opacity:1;stroke-dasharray:none"
       id="path2991-6"
       sodipodi:cx="97.14286"
       sodipodi:cy="195.93361"
       sodipodi:rx="17.142857"
       sodipodi:ry="17.142857"
       d="m 114.28572,195.93361 c 0,9.46774 -7.67512,17.14286 -17.14286,17.14286 -9.467738,0 -17.142856,-7.67512 -17.142856,-17.14286 0,-9.46774 7.675118,-17.14286 17.142856,-17.14286 9.46774,0 17.14286,7.67512 17.14286,17.14286 z"
       transform="translate(113.11702,150.62453)" />
    <text
       xml:space="preserve"
       style="font-size:40px;font-style:normal;font-weight:normal;line-height:125%;letter-spacing:0px;word-spacing:0px;fill:#000000;fill-opacity:1;stroke:none;font-family:Sans"
       x="199.79895"
       y="358.2222"
       id="text3937-9"
       sodipodi:linespacing="125%"><tspan
         sodipodi:role="line"
         id="tspan3939-7"
         x="199.79895"
         y="358.2222"
         style="font-size:32px">6</tspan></text>
    <path
       sodipodi:type="arc"
       style="fill:#dddddd;fill-opacity:0.94117647;stroke:#000000;stroke-width:2;stroke-linecap:butt;stroke-linejoin:miter;stroke-miterlimit:2.9000001;stroke-opacity:1;stroke-dasharray:none"
       id="path2991-2"
       sodipodi:cx="97.14286"
       sodipodi:cy="195.93361"
       sodipodi:rx="17.142857"
       sodipodi:ry="17.142857"
       d="m 114.28572,195.93361 c 0,9.46774 -7.67512,17.14286 -17.14286,17.14286 -9.467738,0 -17.142856,-7.67512 -17.142856,-17.14286 0,-9.46774 7.675118,-17.14286 17.142856,-17.14286 9.46774,0 17.14286,7.67512 17.14286,17.14286 z"
       transform="translate(140.11702,94.624533)" />
    <text
       xml:space="preserve"
       style="font-size:40px;font-style:normal;font-weight:normal;line-height:125%;letter-spacing:0px;word-spacing:0px;fill:#000000;fill-opacity:1;stroke:none;font-family:Sans"
       x="226.79895"
       y="302.2222"
       id="text3937-0"
       sodipodi:linespacing="125%"><tspan
         sodipodi:role="line"
         id="tspan3939-3"
         x="226.79895"
         y="302.2222"
         style="font-size:32px">5</tspan></text>
    <path
       sodipodi:type="arc"
       style="fill:#dddddd;fill-opacity:0.94117647;stroke:#000000;stroke-width:2;stroke-linecap:butt;stroke-linejoin:miter;stroke-miterlimit:2.9000001;stroke-opacity:1;stroke-dasharray:none"
       id="path2991-75"
       sodipodi:cx="97.14286"
       sodipodi:cy="195.93361"
       sodipodi:rx="17.142857"
       sodipodi:ry="17.142857"
       d="m 114.28572,195.93361 c 0,9.46774 -7.67512,17.14286 -17.14286,17.14286 -9.467738,0 -17.142856,-7.67512 -17.142856,-17.14286 0,-9.46774 7.675118,-17.14286 17.142856,-17.14286 9.46774,0 17.14286,7.67512 17.14286,17.14286 z"
       transform="translate(170.11702,146.62453)" />
    <text
       xml:space="preserve"
       style="font-size:40px;font-style:normal;font-weight:normal;line-height:125%;letter-spacing:0px;word-spacing:0px;fill:#000000;fill-opacity:1;stroke:none;font-family:Sans"
       x="256.79895"
       y="354.2222"
       id="text3937-2"
       sodipodi:linespacing="125%"><tspan
         sodipodi:role="line"
         id="tspan3939-9"
         x="256.79895"
         y="354.2222"
         style="font-size:32px">7</tspan></text>
    <path
       transform="matrix(0.68931158,0,0,0.68931158,427.95875,29.986889)"
       sodipodi:type="arc"
       style="fill:#ffffff;fill-opacity:1;stroke:#000000;stroke-width:2.90144563;stroke-linecap:butt;stroke-linejoin:miter;stroke-miterlimit:2.9000001;stroke-opacity:1;stroke-dasharray:none"
       id="path2989-6"
       sodipodi:cx="88.571426"
       sodipodi:cy="225.21933"
       sodipodi:rx="77.85714"
       sodipodi:ry="77.85714"
       d="m 166.42857,225.21933 c 0,42.99931 -34.85783,77.85714 -77.857144,77.85714 -42.99931,0 -77.857139,-34.85783 -77.857139,-77.85714 0,-42.99931 34.857829,-77.85714 77.857139,-77.85714 42.999314,0 77.857144,34.85783 77.857144,77.85714 z" />
    <path
       sodipodi:type="arc"
       style="fill:#dddddd;fill-opacity:0.94117647;stroke:#000000;stroke-width:2;stroke-linecap:butt;stroke-linejoin:miter;stroke-miterlimit:2.9000001;stroke-opacity:1;stroke-dasharray:none"
       id="path2991-65"
       sodipodi:cx="97.14286"
       sodipodi:cy="195.93361"
       sodipodi:rx="17.142857"
       sodipodi:ry="17.142857"
       d="m 114.28572,195.93361 c 0,9.46774 -7.67512,17.14286 -17.14286,17.14286 -9.467738,0 -17.142856,-7.67512 -17.142856,-17.14286 0,-9.46774 7.675118,-17.14286 17.142856,-17.14286 9.46774,0 17.14286,7.67512 17.14286,17.14286 z"
       transform="translate(414.39235,-18.743508)" />
    <text
       xml:space="preserve"
       style="font-size:40px;font-style:normal;font-weight:normal;line-height:125%;letter-spacing:0px;word-spacing:0px;fill:#000000;fill-opacity:1;stroke:none;font-family:Sans"
       x="457.2655"
       y="186.32759"
       id="text3912-9"
       sodipodi:linespacing="125%"><tspan
         sodipodi:role="line"
         id="tspan3914-9"
         x="457.2655"
         y="186.32759">A</tspan></text>
    <text
       xml:space="preserve"
       style="font-size:40px;font-style:normal;font-weight:normal;line-height:125%;letter-spacing:0px;word-spacing:0px;fill:#000000;fill-opacity:1;stroke:none;font-family:Sans"
       x="501.07428"
       y="188.85417"
       id="text3937-92"
       sodipodi:linespacing="125%"><tspan
         sodipodi:role="line"
         id="tspan3939-0"
         x="501.07428"
         y="188.85417"
         style="font-size:32px">1</tspan></text>
    <path
       transform="matrix(0.68931158,0,0,0.68931158,504.94669,152.11589)"
       sodipodi:type="arc"
       style="fill:#ffffff;fill-opacity:1;stroke:#000000;stroke-width:2.90144563;stroke-linecap:butt;stroke-linejoin:miter;stroke-miterlimit:2.9000001;stroke-opacity:1;stroke-dasharray:none"
       id="path2989-6-6"
       sodipodi:cx="88.571426"
       sodipodi:cy="225.21933"
       sodipodi:rx="77.85714"
       sodipodi:ry="77.85714"
       d="m 166.42857,225.21933 c 0,42.99931 -34.85783,77.85714 -77.857144,77.85714 -42.99931,0 -77.857139,-34.85783 -77.857139,-77.85714 0,-42.99931 34.857829,-77.85714 77.857139,-77.85714 42.999314,0 77.857144,34.85783 77.857144,77.85714 z" />
    <text
       xml:space="preserve"
       style="font-size:40px;font-style:normal;font-weight:normal;line-height:125%;letter-spacing:0px;word-spacing:0px;fill:#000000;fill-opacity:1;stroke:none;font-family:Sans"
       x="534.73242"
       y="300.94226"
       id="text3912-1-6"
       sodipodi:linespacing="125%"><tspan
         sodipodi:role="line"
         id="tspan3914-2-6"
         x="534.73242"
         y="300.94226">B</tspan></text>
    <path
       sodipodi:type="arc"
       style="fill:#dddddd;fill-opacity:0.94117647;stroke:#000000;stroke-width:2;stroke-linecap:butt;stroke-linejoin:miter;stroke-miterlimit:2.9000001;stroke-opacity:1;stroke-dasharray:none"
       id="path2991-2-7"
       sodipodi:cx="97.14286"
       sodipodi:cy="195.93361"
       sodipodi:rx="17.142857"
       sodipodi:ry="17.142857"
       d="m 114.28572,195.93361 c 0,9.46774 -7.67512,17.14286 -17.14286,17.14286 -9.467738,0 -17.142856,-7.67512 -17.142856,-17.14286 0,-9.46774 7.675118,-17.14286 17.142856,-17.14286 9.46774,0 17.14286,7.67512 17.14286,17.14286 z"
       transform="translate(491.67608,121.41367)" />
    <text
       xml:space="preserve"
       style="font-size:40px;font-style:normal;font-weight:normal;line-height:125%;letter-spacing:0px;word-spacing:0px;fill:#000000;fill-opacity:1;stroke:none;font-family:Sans"
       x="578.35803"
       y="329.01132"
       id="text3937-0-3"
       sodipodi:linespacing="125%"><tspan
         sodipodi:role="line"
         id="tspan3939-3-2"
         x="578.35803"
         y="329.01132"
         style="font-size:32px">2</tspan></text>
    <g
       id="g4255"
       transform="matrix(0.90789474,0,0,0.90789474,19.18421,33.349148)">
      <path
         transform="matrix(0.84132841,0,0,0.84132841,10.132841,-431.72113)"
         d="m 432,827.36218 c 0,144.14632 -116.85368,261.00002 -261,261.00002 -144.14632,0 -261,-116.8537 -261,-261.00002 0,-144.14632 116.85368,-261 261,-261 144.14632,0 261,116.85368 261,261 z"
         sodipodi:ry="261"
         sodipodi:rx="261"
         sodipodi:cy="827.36218"
         sodipodi:cx="171"
         id="path4247"
         style="fill:#dddddd;fill-opacity:0;stroke:#990000;stroke-width:20;stroke-linecap:butt;stroke-linejoin:miter;stroke-miterlimit:2.9000001;stroke-opacity:1;stroke-dasharray:none"
         sodipodi:type="arc" />
      <path
         inkscape:connector-curvature="0"
         id="path4253"
         d="M -4.099026,419.46121 314.09903,101.26315"
         style="fill:none;stroke:#990000;stroke-width:20;stroke-linecap:butt;stroke-linejoin:miter;stroke-miterlimit:4;stroke-opacity:1;stroke-dasharray:none" />
    </g>
  </g>
</svg>
