<?xml version="1.0" encoding="UTF-8" standalone="no"?>
<!-- Created with matplotlib (http://matplotlib.org/) -->

<svg
   xmlns:dc="http://purl.org/dc/elements/1.1/"
   xmlns:cc="http://creativecommons.org/ns#"
   xmlns:rdf="http://www.w3.org/1999/02/22-rdf-syntax-ns#"
   xmlns:svg="http://www.w3.org/2000/svg"
   xmlns="http://www.w3.org/2000/svg"
   xmlns:xlink="http://www.w3.org/1999/xlink"
   xmlns:sodipodi="http://sodipodi.sourceforge.net/DTD/sodipodi-0.dtd"
   xmlns:inkscape="http://www.inkscape.org/namespaces/inkscape"
   height="473.98108"
   version="1.1"
   viewBox="0 0 470.61235 379.18486"
   width="588.26544"
   id="svg2"
   inkscape:version="0.48.4 r9939"
   sodipodi:docname="forgetting_curves.svg">
  <metadata
     id="metadata132">
    <rdf:RDF>
      <cc:Work
         rdf:about="">
        <dc:format>image/svg+xml</dc:format>
        <dc:type
           rdf:resource="http://purl.org/dc/dcmitype/StillImage" />
        <dc:title></dc:title>
      </cc:Work>
    </rdf:RDF>
  </metadata>
  <sodipodi:namedview
     pagecolor="#ffffff"
     bordercolor="#666666"
     borderopacity="1"
     objecttolerance="10"
     gridtolerance="10"
     guidetolerance="10"
     inkscape:pageopacity="0"
     inkscape:pageshadow="2"
     inkscape:window-width="1596"
     inkscape:window-height="861"
     id="namedview130"
     showgrid="false"
     inkscape:zoom="0.95353535"
     inkscape:cx="395.62973"
     inkscape:cy="282.18857"
     inkscape:window-x="0"
     inkscape:window-y="18"
     inkscape:window-maximized="0"
     inkscape:current-layer="svg2"
     fit-margin-top="0"
     fit-margin-left="0"
     fit-margin-right="0"
     fit-margin-bottom="0" />
  <defs
     id="defs4"
     style="stroke-linecap:butt;stroke-linejoin:round">
    <marker
       inkscape:stockid="Arrow2Mend"
       orient="auto"
       refY="0"
       refX="0"
       id="Arrow2Mend"
       style="stroke-linecap:butt;stroke-linejoin:round;overflow:visible">
      <path
         id="path4221"
         style="fill-rule:evenodd;stroke-width:0.625;stroke-linecap:butt;stroke-linejoin:round"
         d="M 8.7185878,4.0337352 -2.2072895,0.01601326 8.7185884,-4.0017078 c -1.7454984,2.3720609 -1.7354408,5.6174519 -6e-7,8.035443 z"
         transform="scale(-0.6,-0.6)"
         inkscape:connector-curvature="0" />
    </marker>
    <marker
       inkscape:stockid="TriangleOutL"
       orient="auto"
       refY="0"
       refX="0"
       id="TriangleOutL"
       style="overflow:visible">
      <path
         id="path4336"
         d="m 5.77,0 -8.65,5 0,-10 8.65,5 z"
         style="fill-rule:evenodd;stroke:#000000;stroke-width:1pt;stroke-linecap:butt;stroke-linejoin:round"
         transform="scale(0.8,0.8)"
         inkscape:connector-curvature="0" />
    </marker>
    <marker
       inkscape:stockid="Arrow2Lend"
       orient="auto"
       refY="0"
       refX="0"
       id="Arrow2Lend"
       style="stroke-linecap:butt;stroke-linejoin:round;overflow:visible">
      <path
         id="path4215"
         style="fill-rule:evenodd;stroke-width:0.625;stroke-linecap:butt;stroke-linejoin:round"
         d="M 8.7185878,4.0337352 -2.2072895,0.01601326 8.7185884,-4.0017078 c -1.7454984,2.3720609 -1.7354408,5.6174519 -6e-7,8.035443 z"
         transform="matrix(-1.1,0,0,-1.1,-1.1,0)"
         inkscape:connector-curvature="0" />
    </marker>
    <marker
       inkscape:stockid="Arrow2Lstart"
       orient="auto"
       refY="0"
       refX="0"
       id="Arrow2Lstart"
       style="overflow:visible">
      <path
         id="path4212"
         style="fill-rule:evenodd;stroke-width:0.625;stroke-linecap:butt;stroke-linejoin:round"
         d="M 8.7185878,4.0337352 -2.2072895,0.01601326 8.7185884,-4.0017078 c -1.7454984,2.3720609 -1.7354408,5.6174519 -6e-7,8.035443 z"
         transform="matrix(1.1,0,0,1.1,1.1,0)"
         inkscape:connector-curvature="0" />
    </marker>
    <marker
       inkscape:stockid="Arrow1Lend"
       orient="auto"
       refY="0"
       refX="0"
       id="Arrow1Lend"
       style="stroke-linecap:butt;stroke-linejoin:round;overflow:visible">
      <path
         id="path4197"
         d="M 0,0 5,-5 -12.5,0 5,5 0,0 z"
         style="fill-rule:evenodd;stroke:#000000;stroke-width:1pt;stroke-linecap:butt;stroke-linejoin:round"
         transform="matrix(-0.8,0,0,-0.8,-10,0)"
         inkscape:connector-curvature="0" />
    </marker>
    <style
       type="text/css"
       id="style6">
*{stroke-linecap:butt;stroke-linejoin:round;}
  </style>
  </defs>
  <g
     id="patch_1"
     style="stroke-linecap:butt;stroke-linejoin:round"
     transform="translate(-48.418898,2.465095)">
    <path
       id="path10"
       style="fill:#ffffff;stroke-linecap:butt;stroke-linejoin:round"
       d="M 0,396 576,396 576,0 0,0 z"
       inkscape:connector-curvature="0" />
  </g>
  <g
     style="stroke-linecap:butt;stroke-linejoin:round"
     id="patch_2"
     transform="translate(-48.418898,2.465095)">
    <path
       inkscape:connector-curvature="0"
       d="m 72,356.4 446.4,0 0,-316.8 -446.4,0 z"
       style="fill:#ffffff;stroke-linecap:butt;stroke-linejoin:round"
       id="path14" />
  </g>
  <g
     style="stroke-linecap:butt;stroke-linejoin:round"
     id="matplotlib.axis_1"
     transform="matrix(2,0,0,2,-343.86683,-359.77482)">
    <g
       style="stroke-linecap:butt;stroke-linejoin:round"
       id="text_1">
      <!-- Time -->
      <defs
         id="defs18">
        <path
           style="stroke-linecap:butt;stroke-linejoin:round"
           inkscape:connector-curvature="0"
           d="m 37.5,0 0,33.5 q 0,3.8594 -0.4844,6.4375 -0.4844,2.5937 -1.6406,4.1719 -1.1406,1.5937 -3,2.25 -1.8594,0.6562 -4.5469,0.6562 -2.7812,0 -5.0312,-1.0937 -2.2344,-1.0938 -3.8281,-3.1719 -1.5782,-2.0781 -2.4376,-5.125 -0.8593,-3.0469 -0.8593,-7.0156 l 0,-30.6094 -8.7344,0 0,41.5469 q 0,1.6719 -0.03125,3.5 Q 6.89062,46.875 6.82812,48.5 6.78125,50.1406 6.73438,51.3125 6.6875,52.4844 6.64062,52.8281 l 8.29688,0 q 0.0469,-0.2343 0.0937,-1.3125 0.0626,-1.0781 0.125,-2.4687 0.0782,-1.3907 0.125,-2.8281 0.0469,-1.4376 0.0469,-2.4219 l 0.1563,0 q 1.1718,2.2969 2.5312,4.1562 1.375,1.8594 3.2032,3.1407 1.8281,1.2968 4.1874,2 2.375,0.7187 5.5,0.7187 6.0157,0 9.5,-2.3906 3.4844,-2.3907 4.8594,-7.625 l 0.1406,0 q 1.1719,2.2969 2.6407,4.1562 1.4687,1.8594 3.4219,3.1407 1.9531,1.2968 4.3906,2 2.4375,0.7187 5.5625,0.7187 4.0156,0 6.9062,-1.0781 2.9063,-1.0782 4.7657,-3.3282 1.8593,-2.2343 2.7343,-5.7812 0.875,-3.5312 0.875,-8.4219 l 0,-35.2031 -8.6875,0 0,33.5 q 0,3.8594 -0.4844,6.4375 -0.4843,2.5937 -1.6406,4.1719 -1.1406,1.5937 -3,2.25 -1.8594,0.6562 -4.5468,0.6562 -2.7813,0 -5.0313,-1.0468 Q 51.0781,44.9219 49.4844,42.875 47.9062,40.8281 47.0469,37.75 46.1875,34.6719 46.1875,30.6094 L 46.1875,0 z"
           id="LiberationSans-6d" />
        <path
           style="stroke-linecap:butt;stroke-linejoin:round"
           inkscape:connector-curvature="0"
           d="m 35.1562,61.1875 0,-61.1875 -9.2812,0 0,61.1875 -23.625,0 0,7.6094 56.5469,0 0,-7.6094 z"
           id="LiberationSans-54" />
        <path
           style="stroke-linecap:butt;stroke-linejoin:round"
           inkscape:connector-curvature="0"
           d="m 6.6875,64.0625 0,8.4063 8.7969,0 0,-8.4063 z m 0,-64.0625 0,52.8281 8.7969,0 0,-52.8281 z"
           id="LiberationSans-69" />
        <path
           style="stroke-linecap:butt;stroke-linejoin:round"
           inkscape:connector-curvature="0"
           d="m 13.4844,24.5625 q 0,-4.1563 0.8437,-7.6563 0.8594,-3.4843 2.6407,-6 Q 18.75,8.40625 21.5312,7 q 2.7813,-1.39062 6.6876,-1.39062 5.7187,0 9.1562,2.29687 3.4531,2.29685 4.6719,5.81255 L 49.75,11.5312 Q 48.9219,9.32812 47.4375,7.10938 45.9531,4.89062 43.4531,3.09375 40.9688,1.3125 37.2344,0.15625 33.5,-0.984375 28.2188,-0.984375 16.5,-0.984375 10.375,6 4.25,12.9844 4.25,26.7656 q 0,7.4219 1.84375,12.5625 1.85937,5.1563 5.07815,8.375 3.2343,3.2188 7.5312,4.6563 4.2969,1.4531 9.1719,1.4531 6.6406,0 11.1094,-2.1563 4.4687,-2.1406 7.1718,-5.9374 2.7188,-3.7813 3.8594,-8.9063 1.1563,-5.125 1.1563,-11.0781 l 0,-1.1719 z m 28.6094,6.7344 q -0.7344,8.3593 -4.25,12.1875 -3.5157,3.8281 -10.1094,3.8281 -2.2032,0 -4.625,-0.7031 -2.4063,-0.7032 -4.4532,-2.5156 -2.0468,-1.8126 -3.4687,-4.9219 -1.4219,-3.0938 -1.6094,-7.875 z"
           id="LiberationSans-65" />
      </defs>
      <g
         style="fill:#262626;stroke-linecap:butt;stroke-linejoin:round"
         transform="matrix(0.11,0,0,-0.11,283.55289,369.37156)"
         id="g24">
        <use
           height="396"
           width="576"
           y="0"
           x="0"
           style="stroke-linecap:butt;stroke-linejoin:round"
           xlink:href="#LiberationSans-54"
           id="use26" />
        <use
           height="396"
           width="576"
           y="0"
           style="stroke-linecap:butt;stroke-linejoin:round"
           x="57.333984"
           xlink:href="#LiberationSans-69"
           id="use28" />
        <use
           height="396"
           width="576"
           y="0"
           style="stroke-linecap:butt;stroke-linejoin:round"
           x="79.550781"
           xlink:href="#LiberationSans-6d"
           id="use30" />
        <use
           height="396"
           width="576"
           y="0"
           style="stroke-linecap:butt;stroke-linejoin:round"
           x="162.85156"
           xlink:href="#LiberationSans-65"
           id="use32" />
      </g>
    </g>
  </g>
  <g
     style="stroke-linecap:butt;stroke-linejoin:round"
     id="matplotlib.axis_2"
     transform="matrix(2,0,0,2,-113.49186,-195.08104)">
    <g
       style="stroke-linecap:butt;stroke-linejoin:round"
       id="text_2">
      <!-- Memory Retention -->
      <defs
         id="defs36">
        <path
           style="stroke-linecap:butt;stroke-linejoin:round"
           inkscape:connector-curvature="0"
           d="m 6.9375,0 0,40.5312 q 0,1.6563 -0.03125,3.3907 -0.01563,1.7343 -0.07813,3.3437 -0.04687,1.6094 -0.09374,3.0156 -0.04688,1.4219 -0.09376,2.5469 l 8.29688,0 q 0.0469,-1.125 0.125,-2.5625 0.0781,-1.4375 0.1406,-2.9531 0.0781,-1.5156 0.0938,-2.9063 0.0312,-1.3906 0.0312,-2.3593 l 0.2031,0 q 0.9219,3.0156 1.9688,5.2343 1.0625,2.2344 2.4688,3.6719 1.4218,1.4375 3.375,2.1407 1.9531,0.7187 4.7343,0.7187 1.0781,0 2.0469,-0.1719 0.9844,-0.1718 1.5156,-0.3125 l 0,-8.0625 q -0.875,0.25 -2.0468,0.3594 -1.1719,0.125 -2.6407,0.125 -3.0312,0 -5.1562,-1.375 -2.125,-1.3594 -3.4688,-3.7812 Q 17,38.1875 16.3594,34.8438 15.7188,31.5 15.7188,27.5469 L 15.7188,0 z"
           id="LiberationSans-72" />
        <path
           style="stroke-linecap:butt;stroke-linejoin:round"
           inkscape:connector-curvature="0"
           d="m 27.0469,0.390625 q -2,-0.53125 -4.0781,-0.84375 -2.0626,-0.328125 -4.7969,-0.328125 -10.5469,0 -10.5469,11.96875 l 0,35.25 -6.10938,0 0,6.3906 6.4375,0 2.59378,11.8281 5.8593,0 0,-11.8281 9.7657,0 0,-6.3906 -9.7657,0 0,-33.3437 q 0,-3.81255 1.2344,-5.35942 1.25,-1.53126 4.3282,-1.53126 1.2812,0 2.4687,0.1875 1.2031,0.20313 2.6094,0.5 z"
           id="LiberationSans-74" />
        <path
           style="stroke-linecap:butt;stroke-linejoin:round"
           inkscape:connector-curvature="0"
           d="m 66.7031,0 0,45.9062 q 0,2.4844 0.0469,5.0626 0.0469,2.5937 0.1406,4.75 0.1094,2.4843 0.25,4.8281 -0.6875,-2.4844 -1.4218,-4.9375 -0.625,-2.0938 -1.3907,-4.4688 -0.75,-2.3594 -1.4843,-4.2656 L 45.0625,0 38.5312,0 20.5156,46.875 q -0.2968,0.7344 -0.625,1.7031 -0.3125,0.9844 -0.6875,2.0781 -0.3593,1.1094 -0.7343,2.25 -0.3594,1.1407 -0.6876,2.2657 -0.8437,2.5937 -1.625,5.375 0.0626,-2.7344 0.1563,-5.4219 0.0937,-2.2969 0.1406,-4.8125 Q 16.5,47.7969 16.5,45.9062 L 16.5,0 8.20312,0 l 0,68.7969 12.24998,0 18.3125,-47.7031 q 0.3438,-0.9688 0.8282,-2.5157 0.5,-1.5312 0.9374,-3.1562 0.4376,-1.6094 0.7969,-3.0469 0.375,-1.4375 0.5157,-2.2188 0.1562,0.7813 0.5468,2.25 0.3906,1.4688 0.8906,3.0782 0.5157,1.6094 1,3.125 0.5,1.5156 0.8907,2.4844 l 17.9687,47.7031 11.9532,0 0,-68.7969 z"
           id="LiberationSans-4d" />
        <path
           style="stroke-linecap:butt;stroke-linejoin:round"
           inkscape:connector-curvature="0"
           d="m 40.2812,0 0,33.5 q 0,3.8594 -0.5624,6.4375 -0.5626,2.5937 -1.8282,4.1719 -1.2656,1.5937 -3.3437,2.25 -2.0781,0.6562 -5.1563,0.6562 -3.125,0 -5.6406,-1.0937 -2.5156,-1.0938 -4.2969,-3.1719 -1.7812,-2.0781 -2.7656,-5.125 -0.9687,-3.0469 -0.9687,-7.0156 l 0,-30.6094 -8.7813,0 0,41.5469 q 0,1.6719 -0.03125,3.5 Q 6.89062,46.875 6.82812,48.5 6.78125,50.1406 6.73438,51.3125 6.6875,52.4844 6.64062,52.8281 l 8.29688,0 q 0.0469,-0.2343 0.0937,-1.3125 0.0626,-1.0781 0.125,-2.4687 0.0782,-1.3907 0.125,-2.8281 0.0469,-1.4376 0.0469,-2.4219 l 0.1563,0 q 1.2656,2.2969 2.7812,4.1562 1.5156,1.8594 3.5156,3.1407 2,1.2968 4.5782,2 2.5937,0.7187 6.0156,0.7187 4.3906,0 7.5625,-1.0781 3.1719,-1.0782 5.2187,-3.3282 2.0626,-2.2343 3.0157,-5.7812 0.9531,-3.5312 0.9531,-8.4219 L 49.125,0 z"
           id="LiberationSans-6e" />
        <path
           style="stroke-linecap:butt;stroke-linejoin:round"
           inkscape:connector-curvature="0"
           d="m 51.4219,26.4688 q 0,-13.875 -6.1094,-20.67192 -6.1094,-6.781255 -17.7187,-6.781255 -5.5157,0 -9.875,1.65625 -4.3438,1.671875 -7.3438,5.093745 -3,3.42188 -4.59375,8.56248 -1.57813,5.1563 -1.57813,12.1407 0,27.3437 23.67188,27.3437 6.1562,0 10.625,-1.7187 4.4688,-1.7032 7.3281,-5.125 2.8594,-3.4063 4.2188,-8.5469 1.375,-5.125 1.375,-11.9531 m -9.2344,0 q 0,6.1562 -0.9531,10.1562 -0.9532,4 -2.7813,6.3906 -1.8281,2.3906 -4.4687,3.3438 -2.6406,0.9531 -5.9532,0.9531 -3.375,0 -6.0937,-1 -2.7031,-1 -4.6094,-3.4219 -1.8906,-2.4062 -2.9062,-6.4218 -1,-4 -1,-10 0,-6.1563 1.0781,-10.1876 1.0781,-4.0312 2.9531,-6.42182 1.8907,-2.39063 4.4531,-3.375 2.5626,-0.96876 5.5782,-0.96876 3.375,0 6.1094,0.95313 2.7343,0.95313 4.6406,3.34375 1.9062,2.3906 2.9218,6.4375 1.0313,4.0625 1.0313,10.2188"
           id="LiberationSans-6f" />
        <path
           style="stroke-linecap:butt;stroke-linejoin:round"
           inkscape:connector-curvature="0"
           d=""
           id="LiberationSans-20" />
        <path
           style="stroke-linecap:butt;stroke-linejoin:round"
           inkscape:connector-curvature="0"
           d="M 29.5,0 Q 27.6406,-4.78125 25.7031,-8.60938 23.7812,-12.4531 21.3906,-15.1562 19,-17.875 16.0625,-19.3125 13.1406,-20.75 9.32812,-20.75 q -1.65624,0 -3.07812,0.0938 -1.42188,0.0937 -2.98438,0.4374 l 0,6.5938 q 0.9375,-0.1406 2.10938,-0.2188 1.17188,-0.0781 2,-0.0781 3.8594,0 7.1719,2.8907 3.3281,2.87495 5.8125,9.17182 L 21.1875,0.25 0.25,52.8281 l 9.375,0 11.125,-29.1875 q 0.4844,-1.3281 1.2344,-3.5312 0.7656,-2.1875 1.5156,-4.3906 0.7656,-2.1876 1.3438,-3.9532 0.5937,-1.75 0.6874,-2.18748 0.1563,0.53128 0.7188,2.10938 0.5625,1.5937 1.2656,3.5469 0.7032,1.9531 1.4375,3.9531 0.7344,2 1.2188,3.4687 l 10.3593,30.1719 9.2813,0 z"
           id="LiberationSans-79" />
        <path
           style="stroke-linecap:butt;stroke-linejoin:round"
           inkscape:connector-curvature="0"
           d="m 56.8438,0 -17.875,28.5625 -21.4376,0 0,-28.5625 -9.32808,0 0,68.7969 32.37498,0 q 5.8594,0 10.375,-1.3438 4.5157,-1.3437 7.5938,-3.8906 3.0781,-2.5313 4.6875,-6.1875 1.6094,-3.6562 1.6094,-8.25 0,-3.2812 -0.9532,-6.4531 -0.9531,-3.1719 -3,-5.8125 -2.0468,-2.625 -5.2344,-4.5313 -3.1718,-1.9062 -7.6093,-2.6875 L 67.5781,0 z m -1.375,49.0312 q 0,3.125 -1.0782,5.4063 -1.0625,2.2969 -3.125,3.8281 -2.0468,1.5469 -4.9844,2.2969 -2.9218,0.7656 -6.625,0.7656 l -22.125,0 0,-25.3906 22.5157,0 q 4,0 6.9219,1 2.9374,1 4.8124,2.75 1.875,1.7656 2.7813,4.1563 0.9063,2.3906 0.9063,5.1874"
           id="LiberationSans-52" />
      </defs>
      <g
         style="fill:#262626;stroke-linecap:butt;stroke-linejoin:round"
         transform="matrix(0,-0.11,-0.11,0,64.7175,242.57492)"
         id="g46">
        <use
           height="396"
           width="576"
           y="0"
           x="0"
           style="stroke-linecap:butt;stroke-linejoin:round"
           xlink:href="#LiberationSans-4d"
           id="use48" />
        <use
           height="396"
           width="576"
           y="0"
           style="stroke-linecap:butt;stroke-linejoin:round"
           x="83.300781"
           xlink:href="#LiberationSans-65"
           id="use50" />
        <use
           height="396"
           width="576"
           y="0"
           style="stroke-linecap:butt;stroke-linejoin:round"
           x="138.91602"
           xlink:href="#LiberationSans-6d"
           id="use52" />
        <use
           height="396"
           width="576"
           y="0"
           style="stroke-linecap:butt;stroke-linejoin:round"
           x="222.2168"
           xlink:href="#LiberationSans-6f"
           id="use54" />
        <use
           height="396"
           width="576"
           y="0"
           style="stroke-linecap:butt;stroke-linejoin:round"
           x="277.83203"
           xlink:href="#LiberationSans-72"
           id="use56" />
        <use
           height="396"
           width="576"
           y="0"
           style="stroke-linecap:butt;stroke-linejoin:round"
           x="311.13281"
           xlink:href="#LiberationSans-79"
           id="use58" />
        <use
           height="396"
           width="576"
           y="0"
           style="stroke-linecap:butt;stroke-linejoin:round"
           x="361.13281"
           xlink:href="#LiberationSans-20"
           id="use60" />
        <use
           height="396"
           width="576"
           y="0"
           style="stroke-linecap:butt;stroke-linejoin:round"
           x="388.91602"
           xlink:href="#LiberationSans-52"
           id="use62" />
        <use
           height="396"
           width="576"
           y="0"
           style="stroke-linecap:butt;stroke-linejoin:round"
           x="461.13281"
           xlink:href="#LiberationSans-65"
           id="use64" />
        <use
           height="396"
           width="576"
           y="0"
           style="stroke-linecap:butt;stroke-linejoin:round"
           x="516.74805"
           xlink:href="#LiberationSans-74"
           id="use66" />
        <use
           height="396"
           width="576"
           y="0"
           style="stroke-linecap:butt;stroke-linejoin:round"
           x="544.53125"
           xlink:href="#LiberationSans-65"
           id="use68" />
        <use
           height="396"
           width="576"
           y="0"
           style="stroke-linecap:butt;stroke-linejoin:round"
           x="600.14648"
           xlink:href="#LiberationSans-6e"
           id="use70" />
        <use
           height="396"
           width="576"
           y="0"
           style="stroke-linecap:butt;stroke-linejoin:round"
           x="655.76172"
           xlink:href="#LiberationSans-74"
           id="use72" />
        <use
           height="396"
           width="576"
           y="0"
           style="stroke-linecap:butt;stroke-linejoin:round"
           x="683.54492"
           xlink:href="#LiberationSans-69"
           id="use74" />
        <use
           height="396"
           width="576"
           y="0"
           style="stroke-linecap:butt;stroke-linejoin:round"
           x="705.76172"
           xlink:href="#LiberationSans-6f"
           id="use76" />
        <use
           height="396"
           width="576"
           y="0"
           style="stroke-linecap:butt;stroke-linejoin:round"
           x="761.37695"
           xlink:href="#LiberationSans-6e"
           id="use78" />
      </g>
    </g>
  </g>
  <g
     style="stroke-linecap:butt;stroke-linejoin:round"
     id="line2d_1"
     transform="translate(-48.418898,2.465095)">
    <path
       inkscape:connector-curvature="0"
       clip-path="url(#p3d386a08f4)"
       d="m 72,39.6 3.1886,30.1475 3.1885,27.2786 3.1886,24.6829 3.1886,22.334 3.1886,20.208 3.1885,18.285 3.1886,16.546 3.1886,14.971 3.1884,13.546 3.189,12.257 3.188,11.09 3.189,10.036 3.188,9.08 3.189,8.216 3.189,7.434 3.188,6.727 3.189,6.087 3.188,5.507 3.189,4.984 3.188,4.509 3.189,4.08 3.189,3.692 3.188,3.34 3.189,3.023 3.188,2.734 3.189,2.475 3.188,2.239 3.189,2.026 3.189,1.834 3.188,1.658 3.189,1.501 3.188,1.359 6.377,2.34 6.378,1.917 6.377,1.569 6.377,1.285 6.377,1.051 6.377,0.862 9.566,1.008 9.566,0.746 12.754,0.704 12.754,0.472 15.943,0.377 22.32,0.293 35.074,0.193 66.96,0.084 117.977,0.012 0,0"
       style="fill:none;stroke:#808080;stroke-width:1.75;stroke-linecap:butt;stroke-linejoin:round;stroke-dasharray:6, 6;stroke-dashoffset:0"
       id="path81" />
  </g>
  <g
     style="stroke-linecap:butt;stroke-linejoin:round"
     id="line2d_2"
     transform="translate(-48.418898,2.465095)">
    <path
       inkscape:connector-curvature="0"
       clip-path="url(#p3d386a08f4)"
       d="m 72,39.6 3.1886,30.1475 3.1885,27.2786 3.1886,24.6829 3.1886,22.334 3.1886,20.208 3.1885,18.285 3.1886,16.546 3.1886,14.971 3.1884,13.546 3.189,12.257"
       style="fill:none;stroke:#4c72b0;stroke-width:4;stroke-linecap:round;stroke-linejoin:round"
       id="path84" />
  </g>
  <g
     style="stroke-linecap:butt;stroke-linejoin:round"
     id="line2d_3"
     transform="translate(-48.418898,2.465095)">
    <path
       inkscape:connector-curvature="0"
       clip-path="url(#p3d386a08f4)"
       d="m 103.886,229.68 0,-190.08"
       style="fill:none;stroke:#4c72b0;stroke-width:4;stroke-linecap:butt;stroke-linejoin:round;stroke-dasharray:6, 6;stroke-dashoffset:0"
       id="path87" />
  </g>
  <g
     style="stroke-linecap:butt;stroke-linejoin:round"
     id="line2d_4"
     transform="translate(-48.418898,2.465095)">
    <path
       inkscape:connector-curvature="0"
       clip-path="url(#p3d386a08f4)"
       d="m 103.886,39.6 3.188,15.4505 3.189,14.697 3.188,13.9802 3.189,13.2984 3.189,12.6499 3.188,12.033 3.189,11.446 3.188,10.888 3.189,10.356 3.188,9.852 3.189,9.371 3.189,8.914 3.188,8.48 3.189,8.066 3.188,7.672 3.189,7.299 3.188,6.942 3.189,6.604 3.189,6.281 3.188,5.976 3.189,5.684 3.188,5.406 3.189,5.143 3.188,4.893 3.189,4.653 3.189,4.427 3.188,4.211 3.189,4.005 3.188,3.81 3.189,3.624 3.188,3.448 3.189,3.279 6.377,6.087 6.377,5.507 6.377,4.984 6.378,4.509 6.377,4.08 6.377,3.692 6.377,3.34 6.377,3.023 6.377,2.734 6.377,2.475 6.378,2.239 6.377,2.026 6.377,1.834 6.377,1.658 9.566,2.197 9.565,1.891 9.566,1.628 9.566,1.401 9.566,1.206 12.754,1.35 12.754,1.106 12.754,0.905 15.943,0.905 19.132,0.825 22.32,0.697 25.508,0.548 31.886,0.438 19.131,0.175 0,0"
       style="fill:none;stroke:#808080;stroke-width:1.75;stroke-linecap:butt;stroke-linejoin:round;stroke-dasharray:6, 6;stroke-dashoffset:0"
       id="path90" />
  </g>
  <g
     style="stroke-linecap:butt;stroke-linejoin:round"
     id="line2d_5"
     transform="translate(-48.418898,2.465095)">
    <path
       inkscape:connector-curvature="0"
       clip-path="url(#p3d386a08f4)"
       d="m 103.886,39.6 3.188,15.4505 3.189,14.697 3.188,13.9802 3.189,13.2984 3.189,12.6499 3.188,12.033 3.189,11.446 3.188,10.888 3.189,10.356 3.188,9.852 3.189,9.371 3.189,8.914 3.188,8.48 3.189,8.066 3.188,7.672 3.189,7.299 3.188,6.942 3.189,6.604 3.189,6.281 3.188,5.976"
       style="fill:none;stroke:#4c72b0;stroke-width:4;stroke-linecap:round;stroke-linejoin:round"
       id="path93" />
  </g>
  <g
     style="stroke-linecap:butt;stroke-linejoin:round"
     id="line2d_6"
     transform="translate(-48.418898,2.465095)">
    <path
       inkscape:connector-curvature="0"
       clip-path="url(#p3d386a08f4)"
       d="m 167.657,229.68 0,-190.08"
       style="fill:none;stroke:#4c72b0;stroke-width:4;stroke-linecap:butt;stroke-linejoin:round;stroke-dasharray:6, 6;stroke-dashoffset:0"
       id="path96" />
  </g>
  <g
     style="stroke-linecap:butt;stroke-linejoin:round"
     id="line2d_7"
     transform="translate(-48.418898,2.465095)">
    <path
       inkscape:connector-curvature="0"
       clip-path="url(#p3d386a08f4)"
       d="m 167.657,39.6 3.189,7.8218 3.188,7.6287 3.189,7.4404 3.188,7.2566 3.189,7.0775 3.189,6.9027 3.188,6.7323 3.189,6.5661 3.188,6.4039 3.189,6.246 3.188,6.092 3.189,5.941 3.189,5.794 3.188,5.652 3.189,5.512 3.188,5.376 3.189,5.243 3.188,5.113 3.189,4.988 3.189,4.864 3.188,4.744 3.189,4.627 3.188,4.513 3.189,4.401 3.188,4.293 3.189,4.187 3.189,4.083 3.188,3.983 3.189,3.884 3.188,3.788 3.189,3.695 3.188,3.604 3.189,3.514 3.189,3.428 3.188,3.343 3.189,3.261 3.188,3.18 3.189,3.101 3.188,3.025 3.189,2.951 3.189,2.877 3.188,2.807 3.189,2.737 3.188,2.669 3.189,2.604 3.188,2.539 3.189,2.477 3.189,2.416 3.188,2.356 3.189,2.297 3.188,2.241 3.189,2.186 3.188,2.132 3.189,2.079 3.189,2.027 3.188,1.978 3.189,1.929 3.188,1.881 3.189,1.835 3.188,1.789 3.189,1.746 3.189,1.702 3.188,1.66 3.189,1.619 3.188,1.579 3.189,1.541 3.188,1.502 3.189,1.465 3.189,1.429 3.188,1.393 3.189,1.36 3.188,1.325 3.189,1.293 3.188,1.261 3.189,1.23 3.189,1.2 3.188,1.17 3.189,1.141 3.188,1.112 3.189,1.086 3.188,1.058 3.189,1.033 3.189,1.007 3.188,0.982 3.189,0.958 3.188,0.934 3.189,0.911 3.188,0.889 3.189,0.866 3.189,0.846 3.188,0.824 3.189,0.804 3.188,0.784 3.189,0.765 3.188,0.746 3.189,0.728 3.189,0.709 3.188,0.692 3.189,0.675 3.188,0.658 3.189,0.643 3.188,0.626 3.189,0.61 3.189,0.596 3.188,0.581 3.189,0.567 3.188,0.552 3.189,0.539 3.188,0.526"
       style="fill:none;stroke:#808080;stroke-width:1.75;stroke-linecap:butt;stroke-linejoin:round;stroke-dasharray:6, 6;stroke-dashoffset:0"
       id="path99" />
  </g>
  <g
     style="stroke-linecap:butt;stroke-linejoin:round"
     id="line2d_8"
     transform="translate(-48.418898,2.465095)">
    <path
       inkscape:connector-curvature="0"
       clip-path="url(#p3d386a08f4)"
       d="m 167.657,39.6 3.189,7.8218 3.188,7.6287 3.189,7.4404 3.188,7.2566 3.189,7.0775 3.189,6.9027 3.188,6.7323 3.189,6.5661 3.188,6.4039 3.189,6.246 3.188,6.092 3.189,5.941 3.189,5.794 3.188,5.652 3.189,5.512 3.188,5.376 3.189,5.243 3.188,5.113 3.189,4.988 3.189,4.864 3.188,4.744 3.189,4.627 3.188,4.513 3.189,4.401 3.188,4.293 3.189,4.187 3.189,4.083 3.188,3.983 3.189,3.884 3.188,3.788 3.189,3.695 3.188,3.604 3.189,3.514 3.189,3.428 3.188,3.343 3.189,3.261 3.188,3.18 3.189,3.101 3.188,3.025 3.189,2.951"
       style="fill:none;stroke:#4c72b0;stroke-width:4;stroke-linecap:round;stroke-linejoin:round"
       id="path102" />
  </g>
  <g
     style="stroke-linecap:butt;stroke-linejoin:round"
     id="line2d_9"
     transform="translate(-48.418898,2.465095)">
    <path
       inkscape:connector-curvature="0"
       clip-path="url(#p3d386a08f4)"
       d="m 295.2,229.68 0,-190.08"
       style="fill:none;stroke:#4c72b0;stroke-width:4;stroke-linecap:butt;stroke-linejoin:round;stroke-dasharray:6, 6;stroke-dashoffset:0"
       id="path105" />
  </g>
  <g
     style="stroke-linecap:butt;stroke-linejoin:round"
     id="line2d_10"
     transform="translate(-48.418898,2.465095)">
    <path
       inkscape:connector-curvature="0"
       clip-path="url(#p3d386a08f4)"
       d="m 295.2,39.6 3.189,3.9354 3.188,3.8864 3.189,3.8382 3.188,3.7905 3.189,3.7434 3.188,3.697 3.189,3.651 3.189,3.6056 3.188,3.5609 3.189,3.5166 3.188,3.4729 3.189,3.4298 3.188,3.3872 3.189,3.3451 3.189,3.3036 3.188,3.2625 3.189,3.2219 3.188,3.182 3.189,3.143 3.188,3.103 3.189,3.065 3.189,3.027 3.188,2.989 3.189,2.952 3.188,2.915 3.189,2.879 3.188,2.844 3.189,2.808 3.189,2.773 3.188,2.739 3.189,2.704 3.188,2.672 3.189,2.638 3.188,2.605 3.189,2.573 3.189,2.54 3.188,2.51 3.189,2.478 3.188,2.447 3.189,2.417 3.188,2.387 3.189,2.357 3.189,2.328 3.188,2.299 3.189,2.271 3.188,2.242 3.189,2.215 3.188,2.186 3.189,2.16 3.189,2.133 3.188,2.107 3.189,2.08 3.188,2.054 3.189,2.029 3.188,2.004 3.189,1.979 3.189,1.954 3.188,1.93 3.189,1.906 3.188,1.882 3.189,1.859 3.188,1.836 3.189,1.813 3.189,1.791 3.188,1.768 3.189,1.746 3.188,1.725 3.189,1.703 3.188,1.682"
       style="fill:none;stroke:#808080;stroke-width:1.75;stroke-linecap:butt;stroke-linejoin:round;stroke-dasharray:6, 6;stroke-dashoffset:0"
       id="path108" />
  </g>
  <g
     style="stroke-linecap:butt;stroke-linejoin:round"
     id="line2d_11"
     transform="translate(-48.418898,2.465095)">
    <path
       inkscape:connector-curvature="0"
       clip-path="url(#p3d386a08f4)"
       d="m 295.2,39.6 3.189,3.9354 3.188,3.8864 3.189,3.8382 3.188,3.7905 3.189,3.7434 3.188,3.697 3.189,3.651 3.189,3.6056 3.188,3.5609 3.189,3.5166 3.188,3.4729 3.189,3.4298 3.188,3.3872 3.189,3.3451 3.189,3.3036 3.188,3.2625 3.189,3.2219 3.188,3.182 3.189,3.143 3.188,3.103 3.189,3.065 3.189,3.027 3.188,2.989 3.189,2.952 3.188,2.915 3.189,2.879 3.188,2.844 3.189,2.808 3.189,2.773 3.188,2.739 3.189,2.704 3.188,2.672 3.189,2.638 3.188,2.605 3.189,2.573 3.189,2.54 3.188,2.51 3.189,2.478 3.188,2.447 3.189,2.417 3.188,2.387 3.189,2.357 3.189,2.328 3.188,2.299 3.189,2.271 3.188,2.242 3.189,2.215 3.188,2.186 3.189,2.16 3.189,2.133 3.188,2.107 3.189,2.08 3.188,2.054 3.189,2.029 3.188,2.004 3.189,1.979 3.189,1.954 3.188,1.93 3.189,1.906 3.188,1.882 3.189,1.859 3.188,1.836 3.189,1.813 3.189,1.791 3.188,1.768 3.189,1.746 3.188,1.725 3.189,1.703 3.188,1.682"
       style="fill:none;stroke:#4c72b0;stroke-width:4;stroke-linecap:round;stroke-linejoin:round"
       id="path111" />
  </g>
  <g
     style="stroke-linecap:butt;stroke-linejoin:round"
     id="patch_3"
     transform="translate(-48.418898,2.465095)">
    <path
       inkscape:connector-curvature="0"
       d="m 72,39.6 446.4,0"
       style="fill:none;stroke:#262626;stroke-width:1.25;stroke-linecap:butt;stroke-linejoin:round"
       id="path114" />
  </g>
  <g
     style="stroke-linecap:butt;stroke-linejoin:round"
     id="patch_4"
     transform="translate(-48.418898,2.465095)">
    <path
       inkscape:connector-curvature="0"
       d="m 518.4,356.4 0,-316.8"
       style="fill:none;stroke:#262626;stroke-width:1.25;stroke-linecap:butt;stroke-linejoin:round"
       id="path117" />
  </g>
  <g
     style="stroke-linecap:butt;stroke-linejoin:round"
     id="patch_5"
     transform="translate(-48.418898,2.465095)">
    <path
       inkscape:connector-curvature="0"
       d="m 72,356.4 446.4,0"
       style="fill:none;stroke:#262626;stroke-width:1.25;stroke-linecap:butt;stroke-linejoin:round"
       id="path120" />
  </g>
  <g
     style="stroke-linecap:butt;stroke-linejoin:round"
     id="patch_6"
     transform="translate(-48.418898,2.465095)">
    <path
       inkscape:connector-curvature="0"
       d="M 72,356.4 72,39.6"
       style="fill:none;stroke:#262626;stroke-width:1.25;stroke-linecap:butt;stroke-linejoin:round"
       id="path123" />
  </g>
  <defs
     id="defs125">
    <clipPath
       id="p3d386a08f4">
      <rect
         height="316.79999"
         width="446.39999"
         x="72"
         y="39.599998"
         id="rect128"
         style="stroke-linecap:butt;stroke-linejoin:round" />
    </clipPath>
  </defs>
  <text
     xml:space="preserve"
     style="font-size:17.60000038px;font-style:normal;font-variant:normal;font-weight:normal;font-stretch:normal;text-align:start;line-height:125%;letter-spacing:0px;word-spacing:0px;writing-mode:lr-tb;text-anchor:start;fill:#000000;fill-opacity:1;stroke:none;font-family:Sans;-inkscape-font-specification:Sans"
     x="138.67432"
     y="13.371876"
     id="text3410"
     sodipodi:linespacing="125%"><tspan
       sodipodi:role="line"
       id="tspan3412"
       x="138.67432"
       y="13.371876">first learned</tspan></text>
  <text
     xml:space="preserve"
     style="font-size:17.60000038px;font-style:normal;font-variant:normal;font-weight:normal;font-stretch:normal;text-align:start;line-height:125%;letter-spacing:0px;word-spacing:0px;writing-mode:lr-tb;text-anchor:start;fill:#000000;fill-opacity:1;stroke:none;font-family:Sans;-inkscape-font-specification:Sans"
     x="289.69128"
     y="193.75322"
     id="text3414"
     sodipodi:linespacing="125%"><tspan
       sodipodi:role="line"
       id="tspan3416"
       x="289.69128"
       y="193.75322">reminder</tspan><tspan
       sodipodi:role="line"
       x="289.69128"
       y="215.75322"
       id="tspan3418" /></text>
  <path
     style="fill:none;stroke:#000000;stroke-width:1.60000002;stroke-linecap:butt;stroke-linejoin:miter;stroke-miterlimit:4;stroke-opacity:1;stroke-dasharray:none;marker-end:url(#TriangleOutL)"
     d="M 133.22093,10.435434 36.31839,34.346451"
     id="path3420"
     inkscape:connector-curvature="0"
     sodipodi:nodetypes="cc" />
  <path
     style="fill:none;stroke:#000000;stroke-width:1.60000002;stroke-linecap:butt;stroke-linejoin:miter;stroke-miterlimit:4;stroke-opacity:1;stroke-dasharray:none;marker-end:url(#TriangleOutL)"
     d="M 293.04721,175.29561 69.038726,49.448146"
     id="path5388"
     inkscape:connector-curvature="0"
     sodipodi:nodetypes="cc" />
  <path
     style="fill:none;stroke:#000000;stroke-width:1.60000002;stroke-linecap:butt;stroke-linejoin:miter;stroke-miterlimit:4;stroke-opacity:1;stroke-dasharray:none;marker-end:url(#TriangleOutL)"
     d="M 312.34381,171.10069 134.47941,50.287129"
     id="path5390"
     inkscape:connector-curvature="0"
     sodipodi:nodetypes="cc" />
  <path
     style="fill:none;stroke:#000000;stroke-width:1.60000002;stroke-linecap:butt;stroke-linejoin:miter;stroke-miterlimit:4;stroke-opacity:1;stroke-dasharray:none;marker-end:url(#TriangleOutL)"
     d="M 319.05569,168.58374 255.29297,54.482044"
     id="path5392"
     inkscape:connector-curvature="0"
     sodipodi:nodetypes="cc" />
</svg>
